# xmcd
#
# Track frame offsets: 
#        150
#        16980
#        32572
#        58910
#        71277
#        87897
#        98407
#        110495
#        127475
#        149437
#        162877
#        174482
#        185132
#        198060
#
# Disc length: 2816 seconds
#
# Revision: 3
# Processed by: cddbd v1.5.2PL0 Copyright (c) Steve Scherf et al.
# Submitted via: ExactAudioCopyFreeDBPlugin 1.0
#
DISCID=bf0afe0e
DTITLE=Soul Survivors - When the Whistle Blows Anything Goes (expanded
DTITLE=2006 VampiSoul edition)
DYEAR=2006
DGENRE=Soul
TTITLE0=Do You Feel It
TTITLE1=Please, Please, Please
TTITLE2=Too Many Fish in the Sea - Shake
TTITLE3=Dathon's Theme
TTITLE4=Taboo-India
TTITLE5=Expressway (To Your Heart)
TTITLE6=Respect
TTITLE7=A Change is Gonna Come
TTITLE8=Hey Gyp
TTITLE9=The Rydle
TTITLE10=Explosion in Your Soul (bonus non-album track)
TTITLE11=Impossible Mission (bonus non-album track)
TTITLE12=Poor Man's Dream (bonus non-album track)
TTITLE13=Explosion in Your Soul  (extended version) (bonus non-album t
TTITLE13=rack)
EXTD=
EXTT0=
EXTT1=
EXTT2=
EXTT3=
EXTT4=
EXTT5=
EXTT6=
EXTT7=
EXTT8=
EXTT9=
EXTT10=
EXTT11=
EXTT12=
EXTT13=
PLAYORDER=
